<?xml version="1.0" encoding="utf-8"?>
<!-- Generator: Adobe Illustrator 16.0.0, SVG Export Plug-In . SVG Version: 6.00 Build 0)  -->
<!DOCTYPE svg PUBLIC "-//W3C//DTD SVG 1.1//EN" "http://www.w3.org/Graphics/SVG/1.1/DTD/svg11.dtd">
<svg version="1.1" xmlns="http://www.w3.org/2000/svg" xmlns:xlink="http://www.w3.org/1999/xlink" x="0px" y="0px" width="800px"
	 height="800px" viewBox="0 0 800 800" enable-background="new 0 0 800 800" xml:space="preserve">
<g id="BACKGROUND">
	<rect id="XMLID_63_" fill="#F3F3F3" width="800" height="800"/>
</g>
<g id="OBJECTS">
	<g id="XMLID_289_">
		<g id="XMLID_225_">
			<path id="XMLID_287_" fill="#DED9D7" d="M417.062,755.35H377.9v-18h39.163c22.867,0,41.774-18.221,42.147-40.615
				c0.187-11.181-4.022-21.723-11.853-29.685c-7.833-7.966-18.297-12.351-29.466-12.351h-39.164
				c-32.627,0-59.608-26.16-60.145-58.314c-0.268-16.045,5.775-31.176,17.017-42.606c11.244-11.433,26.266-17.729,42.3-17.729
				h39.163c22.867,0,41.774-18.22,42.147-40.616c0.187-11.18-4.022-21.723-11.853-29.685c-7.832-7.965-18.297-12.352-29.466-12.352
				h-39.164c-32.627,0-59.608-26.159-60.145-58.314c-0.268-16.044,5.775-31.175,17.017-42.606
				c11.244-11.433,26.267-17.729,42.3-17.729h39.163c22.867,0,41.774-18.22,42.147-40.615c0.187-11.181-4.022-21.723-11.853-29.685
				c-7.833-7.964-18.297-12.351-29.466-12.351h-39.164c-32.627,0-59.608-26.16-60.145-58.314
				c-0.268-16.044,5.775-31.176,17.017-42.606c11.244-11.433,26.267-17.729,42.3-17.729h19.996c6.063,0,10.996-4.933,10.996-10.996
				v-10.211h18v10.211c0,15.989-13.008,28.996-28.996,28.996H377.9c-11.169,0-21.634,4.386-29.466,12.351
				c-7.831,7.962-12.04,18.504-11.854,29.684c0.375,22.396,19.282,40.615,42.148,40.615h39.164c16.033,0,31.056,6.296,42.299,17.729
				c11.242,11.431,17.285,26.562,17.018,42.606c-0.536,32.155-27.518,58.315-60.146,58.315H377.9
				c-11.169,0-21.634,4.386-29.466,12.351c-7.831,7.962-12.04,18.504-11.854,29.684c0.375,22.396,19.282,40.616,42.148,40.616
				h39.164c16.034,0,31.056,6.296,42.3,17.729c11.241,11.431,17.284,26.562,17.017,42.605
				c-0.536,32.156-27.518,58.316-60.146,58.316H377.9c-11.169,0-21.634,4.385-29.467,12.351c-7.83,7.962-12.04,18.505-11.853,29.685
				c0.375,22.395,19.282,40.615,42.148,40.615h39.164c16.033,0,31.056,6.296,42.299,17.729
				c11.242,11.431,17.285,26.562,17.018,42.606C476.672,729.189,449.69,755.35,417.062,755.35z"/>
		</g>
		<g id="XMLID_376_">
			<g id="XMLID_350_">
				<path id="XMLID_281_" fill="#785E6C" d="M405.019,396.866h138.7c3.457,0,6.7,1.702,8.631,4.569
					c2.338,3.472,6.348,5.723,10.876,5.598c6.569-0.182,12.036-5.57,12.305-12.137c0.296-7.242-5.487-13.206-12.663-13.206
					c-4.301,0-8.1,2.143-10.391,5.418c-2.027,2.9-5.227,4.757-8.766,4.757H405.019V396.866z"/>
				<polygon id="XMLID_292_" fill="#FFFFFF" points="567.646,392.867 564.521,392.867 564.521,389.74 561.521,389.74 
					561.521,392.867 558.395,392.867 558.395,395.867 561.521,395.867 561.521,398.993 564.521,398.993 564.521,395.867 
					567.646,395.867 				"/>
			</g>
			<g id="XMLID_67_">
				<g id="XMLID_69_">
					<path id="XMLID_234_" fill="#785E6C" d="M406.517,368.808c7.58,7.581,11.094,17.685,10.521,27.605
						c-0.474,8.563-3.988,16.985-10.521,23.519c-6.534,6.533-14.949,10.041-23.505,10.521c-9.928,0.566-20.039-2.941-27.62-10.521
						c-14.121-14.121-14.114-37.01,0-51.124C369.513,354.687,392.395,354.687,406.517,368.808z"/>
				</g>
				<linearGradient id="XMLID_11_" gradientUnits="userSpaceOnUse" x1="406.5596" y1="419.9678" x2="380.6996" y2="394.1078">
					<stop  offset="0" style="stop-color:#FFFFFF;stop-opacity:0"/>
					<stop  offset="0.0676" style="stop-color:#F3F1F2;stop-opacity:0.0676"/>
					<stop  offset="0.3923" style="stop-color:#BFB2B9;stop-opacity:0.3923"/>
					<stop  offset="0.6671" style="stop-color:#98858F;stop-opacity:0.6671"/>
					<stop  offset="0.8781" style="stop-color:#816876;stop-opacity:0.8781"/>
					<stop  offset="1" style="stop-color:#785E6C"/>
				</linearGradient>
				<path id="XMLID_232_" fill="url(#XMLID_11_)" d="M397.974,377.35l19.064,19.063c-0.474,8.563-3.988,16.985-10.521,23.519
					c-6.534,6.533-14.949,10.041-23.505,10.521l-19.07-19.07L397.974,377.35z"/>
				<linearGradient id="XMLID_12_" gradientUnits="userSpaceOnUse" x1="365.4785" y1="377.937" x2="397.9777" y2="412.4362">
					<stop  offset="0" style="stop-color:#FFFFFF"/>
					<stop  offset="0.9847" style="stop-color:#D2D4D5"/>
					<stop  offset="1" style="stop-color:#D1D3D4"/>
				</linearGradient>
				<circle id="XMLID_68_" fill="url(#XMLID_12_)" cx="380.955" cy="394.366" r="24.063"/>
				
					<text id="XMLID_330_" transform="matrix(1 0 0 1 359.0347 406.0391)" fill="#785E6C" font-family="'BebasNeueBold'" font-size="34.1481">03</text>
			</g>
		</g>
		<g id="XMLID_314_">
			<g id="XMLID_315_">
				
					<text id="XMLID_318_" transform="matrix(1.038 0 0 1 41.6055 301.9165)" fill="#5FA887" font-family="'BebasNeueBold'" font-size="25.0382">TASK ANALYSIS</text>
			</g>
		</g>
		<g id="XMLID_321_">
			<g id="XMLID_322_">
				<text id="XMLID_326_" transform="matrix(1.1035 0 0 1 97.209 492.7959)"><tspan x="0" y="0" fill="#EFA518" font-family="'BebasNeueBold'" font-size="25.0382">AFFINITY </tspan><tspan x="0" y="30.046" fill="#EFA518" font-family="'BebasNeueBold'" font-size="25.0382">MAPPING</tspan></text>
				<rect id="XMLID_323_" x="97.209" y="529.17" fill="#DED9D7" width="112.791" height="3.844"/>
				<rect id="XMLID_1_" x="72.604" y="310.055" fill="none" width="137.791" height="3.844"/>
				<rect id="XMLID_2_" x="595.271" y="224.434" fill="#DED9D7" width="148.729" height="3.844"/>
				<rect id="XMLID_3_" x="596.271" y="437.508" fill="#DED9D7" width="140.791" height="3.844"/>
				<rect id="XMLID_6_" x="600.271" y="608.12" fill="#DED9D7" width="84.729" height="3.844"/>
				<rect id="XMLID_4_" x="96.604" y="707.613" fill="#DED9D7" width="113.396" height="3.844"/>
				<rect id="XMLID_5_" x="42.605" y="309.977" fill="#DED9D7" width="160.895" height="3.844"/>
			</g>
		</g>
		<g id="XMLID_331_">
			<g id="XMLID_332_">
				
					<text id="XMLID_336_" transform="matrix(1 0 0 1 96.6045 702.6748)" fill="#E8804D" font-family="'BebasNeueBold'" font-size="25.0382">PERSONAS</text>
			</g>
		</g>
		<g id="XMLID_301_">
			<g id="XMLID_302_">
				<text id="XMLID_304_" transform="matrix(0.9714 0 0 1 595.542 401.9014)"><tspan x="0" y="0" fill="#785E6C" font-family="'BebasNeueBold'" font-size="25.0382">CONTEXTUAL </tspan><tspan x="0" y="30.046" fill="#785E6C" font-family="'BebasNeueBold'" font-size="25.0382">INQUIRY</tspan></text>
			</g>
		</g>
		<g id="XMLID_307_">
			<g id="XMLID_308_">
				
					<text id="XMLID_311_" transform="matrix(1.0517 0 0 1 597.8154 599.8828)" fill="#008080" font-family="'BebasNeueBold'" font-size="25.0382">SURVEY</text>
			</g>
		</g>
		<g id="XMLID_300_">
			<g id="XMLID_297_">
				<text id="XMLID_274_" transform="matrix(0.9918 0 0 1 596.543 185.9199)"><tspan x="0" y="0" fill="#DA635A" font-family="'BebasNeueBold'" font-size="25.0382">NATURALISTIC </tspan><tspan x="0" y="30.046" fill="#DA635A" font-family="'BebasNeueBold'" font-size="25.0382">OBSERVATION</tspan></text>
			</g>
			<g id="XMLID_7_">
				<g id="XMLID_8_">
					
						<text id="XMLID_9_" transform="matrix(1.0648 0 0 1 137.8042 68.4365)" fill="#DA635A" font-family="'BebasNeueBold'" font-size="45">USER  RESEARCH  PROCESS</text>
				</g>
			</g>
		</g>
		<g id="XMLID_361_">
			<g id="XMLID_329_">
				<path id="XMLID_280_" fill="#DA635A" d="M405.019,194.771h138.7c3.457,0,6.7,1.702,8.631,4.569
					c2.338,3.472,6.348,5.723,10.876,5.598c6.569-0.182,12.036-5.571,12.305-12.137c0.296-7.242-5.487-13.206-12.663-13.206
					c-4.301,0-8.1,2.143-10.391,5.418c-2.027,2.9-5.227,4.757-8.766,4.757H405.019V194.771z"/>
				<polygon id="XMLID_291_" fill="#FFFFFF" points="567.646,190.767 564.521,190.767 564.521,187.641 561.521,187.641 
					561.521,190.767 558.395,190.767 558.395,193.767 561.521,193.767 561.521,196.893 564.521,196.893 564.521,193.767 
					567.646,193.767 				"/>
			</g>
			<g id="XMLID_359_">
				<g id="XMLID_264_">
					<g id="XMLID_267_">
						<path id="XMLID_268_" fill="#DA635A" d="M406.517,166.71c7.58,7.58,11.094,17.685,10.521,27.605
							c-0.474,8.563-3.988,16.984-10.521,23.518c-6.534,6.534-14.949,10.041-23.505,10.522c-9.928,0.565-20.039-2.941-27.62-10.522
							c-14.121-14.121-14.114-37.01,0-51.124C369.513,152.589,392.395,152.589,406.517,166.71z"/>
					</g>
					<linearGradient id="XMLID_13_" gradientUnits="userSpaceOnUse" x1="381.0933" y1="191.4829" x2="406.594" y2="219.4837">
						<stop  offset="0" style="stop-color:#DA635A"/>
						<stop  offset="0.1196" style="stop-color:#DC6D64;stop-opacity:0.8804"/>
						<stop  offset="0.3267" style="stop-color:#E38881;stop-opacity:0.6733"/>
						<stop  offset="0.5963" style="stop-color:#EDB3AE;stop-opacity:0.4037"/>
						<stop  offset="0.9149" style="stop-color:#FBEEED;stop-opacity:0.0851"/>
						<stop  offset="1" style="stop-color:#FFFFFF;stop-opacity:0"/>
					</linearGradient>
					<path id="XMLID_266_" fill="url(#XMLID_13_)" d="M397.974,175.252l19.064,19.064c-0.474,8.563-3.988,16.984-10.521,23.518
						c-6.534,6.534-14.949,10.041-23.505,10.522l-19.07-19.071L397.974,175.252z"/>
					<linearGradient id="XMLID_14_" gradientUnits="userSpaceOnUse" x1="365.4785" y1="175.8398" x2="397.9777" y2="210.339">
						<stop  offset="0" style="stop-color:#FFFFFF"/>
						<stop  offset="0.9847" style="stop-color:#D2D4D5"/>
						<stop  offset="1" style="stop-color:#D1D3D4"/>
					</linearGradient>
					<circle id="XMLID_265_" fill="url(#XMLID_14_)" cx="380.955" cy="192.269" r="24.063"/>
				</g>
				
					<text id="XMLID_325_" transform="matrix(1 0 0 1 359.0347 203.9429)" fill="#DA635A" font-family="'BebasNeueBold'" font-size="34.1481">01</text>
			</g>
		</g>
		<g id="XMLID_375_">
			<g id="XMLID_349_">
				<path id="XMLID_284_" fill="#5FA887" d="M389.734,290.88H251.033c-3.457,0-6.701-1.702-8.631-4.569
					c-2.338-3.472-6.348-5.724-10.876-5.599c-6.569,0.182-12.036,5.571-12.304,12.137c-0.296,7.242,5.487,13.206,12.663,13.206
					c4.301,0,8.1-2.143,10.391-5.418c2.028-2.9,5.227-4.757,8.766-4.757h138.693V290.88z"/>
				<polygon id="XMLID_295_" fill="none" points="237.021,291.881 233.896,291.881 233.896,288.755 230.896,288.755 
					230.896,291.881 227.77,291.881 227.77,294.881 230.896,294.881 230.896,298.007 233.896,298.007 233.896,294.881 
					237.021,294.881 				"/>
			</g>
			<g id="XMLID_362_">
				<g id="XMLID_259_">
					<g id="XMLID_262_">
						<path id="XMLID_263_" fill="#5FA887" d="M439.517,267.823c7.58,7.58,11.094,17.685,10.521,27.605
							c-0.474,8.563-3.988,16.985-10.521,23.519c-6.534,6.534-14.948,10.041-23.505,10.521c-9.928,0.566-20.039-2.941-27.62-10.521
							c-14.121-14.121-14.114-37.01,0-51.124C402.514,253.702,425.396,253.702,439.517,267.823z"/>
					</g>
					<linearGradient id="XMLID_15_" gradientUnits="userSpaceOnUse" x1="439.2188" y1="318.6421" x2="412.7821" y2="292.2054">
						<stop  offset="0" style="stop-color:#FFFFFF;stop-opacity:0"/>
						<stop  offset="0.0631" style="stop-color:#F2F8F5;stop-opacity:0.0631"/>
						<stop  offset="0.3894" style="stop-color:#B3D6C6;stop-opacity:0.3894"/>
						<stop  offset="0.6655" style="stop-color:#86BDA4;stop-opacity:0.6655"/>
						<stop  offset="0.8775" style="stop-color:#69AE8F;stop-opacity:0.8775"/>
						<stop  offset="1" style="stop-color:#5FA887"/>
					</linearGradient>
					<path id="XMLID_261_" fill="url(#XMLID_15_)" d="M430.975,276.365l19.063,19.063c-0.474,8.563-3.988,16.985-10.521,23.519
						c-6.534,6.534-14.948,10.041-23.505,10.521l-19.07-19.071L430.975,276.365z"/>
					<linearGradient id="XMLID_16_" gradientUnits="userSpaceOnUse" x1="398.4785" y1="276.9517" x2="430.9784" y2="311.4515">
						<stop  offset="0" style="stop-color:#FFFFFF"/>
						<stop  offset="0.9847" style="stop-color:#D2D4D5"/>
						<stop  offset="1" style="stop-color:#D1D3D4"/>
					</linearGradient>
					<circle id="XMLID_260_" fill="url(#XMLID_16_)" cx="413.956" cy="293.382" r="24.063"/>
				</g>
				
					<text id="XMLID_339_" transform="matrix(1 0 0 1 393.0347 304.0078)" fill="#5FA887" font-family="'BebasNeueBold'" font-size="34.1481">02</text>
			</g>
		</g>
		<g id="XMLID_378_">
			<g id="XMLID_351_">
				<path id="XMLID_282_" fill="#EFA518" d="M389.734,492.401H251.033c-3.457,0-6.701-1.702-8.631-4.569
					c-2.338-3.472-6.348-5.724-10.876-5.599c-6.569,0.182-12.036,5.571-12.304,12.138c-0.296,7.241,5.487,13.205,12.663,13.205
					c4.301,0,8.1-2.143,10.391-5.418c2.028-2.9,5.227-4.757,8.766-4.757h138.693V492.401z"/>
				<polygon id="XMLID_294_" fill="#FFFFFF" points="237.021,493.404 233.896,493.404 233.896,490.278 230.896,490.278 
					230.896,493.404 227.77,493.404 227.77,496.404 230.896,496.404 230.896,499.53 233.896,499.53 233.896,496.404 
					237.021,496.404 				"/>
			</g>
			<g id="XMLID_377_">
				<g id="XMLID_269_">
					<g id="XMLID_272_">
						<path id="XMLID_273_" fill="#EFA518" d="M439.517,469.346c7.58,7.58,11.094,17.685,10.521,27.605
							c-0.474,8.563-3.988,16.984-10.521,23.519c-6.534,6.533-14.948,10.041-23.505,10.521c-9.928,0.565-20.039-2.941-27.62-10.521
							c-14.121-14.121-14.114-37.01,0-51.124C402.514,455.225,425.396,455.225,439.517,469.346z"/>
					</g>
					
						<linearGradient id="XMLID_17_" gradientUnits="userSpaceOnUse" x1="284.1753" y1="409.9287" x2="284.1753" y2="445.7512" gradientTransform="matrix(0.7071 -0.7071 0.7071 0.7071 -77.251 405.5752)">
						<stop  offset="0" style="stop-color:#FB9332"/>
						<stop  offset="0.1013" style="stop-color:#FB993C;stop-opacity:0.8987"/>
						<stop  offset="0.2766" style="stop-color:#FCA759;stop-opacity:0.7234"/>
						<stop  offset="0.505" style="stop-color:#FDBF86;stop-opacity:0.495"/>
						<stop  offset="0.7744" style="stop-color:#FEE0C5;stop-opacity:0.2256"/>
						<stop  offset="1" style="stop-color:#FFFFFF;stop-opacity:0"/>
					</linearGradient>
					<path id="XMLID_271_" fill="url(#XMLID_17_)" d="M430.975,477.888l19.063,19.063c-0.474,8.563-3.988,16.984-10.521,23.519
						c-6.534,6.533-14.948,10.041-23.505,10.521l-19.07-19.07L430.975,477.888z"/>
					<linearGradient id="XMLID_18_" gradientUnits="userSpaceOnUse" x1="398.4785" y1="478.4756" x2="430.9784" y2="512.9755">
						<stop  offset="0" style="stop-color:#FFFFFF"/>
						<stop  offset="0.9847" style="stop-color:#D2D4D5"/>
						<stop  offset="1" style="stop-color:#D1D3D4"/>
					</linearGradient>
					<circle id="XMLID_270_" fill="url(#XMLID_18_)" cx="413.956" cy="494.904" r="24.063"/>
				</g>
				
					<text id="XMLID_340_" transform="matrix(1 0 0 1 393.0347 507.625)" fill="#EFA518" font-family="'BebasNeueBold'" font-size="34.1481">04</text>
			</g>
		</g>
		<g id="XMLID_380_">
			<g id="XMLID_352_">
				<path id="XMLID_283_" fill="#008080" d="M405.019,597.948h138.7c3.457,0,6.7,1.702,8.631,4.569
					c2.338,3.472,6.348,5.724,10.876,5.598c6.569-0.181,12.036-5.57,12.305-12.137c0.296-7.241-5.487-13.205-12.663-13.205
					c-4.301,0-8.1,2.143-10.391,5.418c-2.027,2.9-5.227,4.757-8.766,4.757H405.019V597.948z"/>
				<polygon id="XMLID_293_" fill="#FFFFFF" points="567.646,594.966 564.521,594.966 564.521,591.84 561.521,591.84 
					561.521,594.966 558.395,594.966 558.395,597.966 561.521,597.966 561.521,601.092 564.521,601.092 564.521,597.966 
					567.646,597.966 				"/>
			</g>
			<g id="XMLID_379_">
				<g id="XMLID_246_">
					<g id="XMLID_257_">
						<path id="XMLID_258_" fill="#008080" d="M406.517,569.888c7.58,7.581,11.094,17.686,10.521,27.605
							c-0.474,8.563-3.988,16.985-10.521,23.519c-6.534,6.534-14.949,10.041-23.505,10.521c-9.928,0.566-20.039-2.941-27.62-10.521
							c-14.121-14.121-14.114-37.01,0-51.124C369.513,555.768,392.395,555.768,406.517,569.888z"/>
					</g>
					
						<linearGradient id="XMLID_19_" gradientUnits="userSpaceOnUse" x1="189.7461" y1="457.6885" x2="189.7461" y2="493.511" gradientTransform="matrix(0.7071 -0.7071 0.7071 0.7071 -77.251 405.5752)">
						<stop  offset="0" style="stop-color:#FB9332"/>
						<stop  offset="0.1013" style="stop-color:#FB993C;stop-opacity:0.8987"/>
						<stop  offset="0.2766" style="stop-color:#FCA759;stop-opacity:0.7234"/>
						<stop  offset="0.505" style="stop-color:#FDBF86;stop-opacity:0.495"/>
						<stop  offset="0.7744" style="stop-color:#FEE0C5;stop-opacity:0.2256"/>
						<stop  offset="1" style="stop-color:#FFFFFF;stop-opacity:0"/>
					</linearGradient>
					<path id="XMLID_256_" fill="url(#XMLID_19_)" d="M397.974,578.43l19.064,19.063c-0.474,8.563-3.988,16.985-10.521,23.519
						c-6.534,6.534-14.949,10.041-23.505,10.521l-19.07-19.07L397.974,578.43z"/>
					<linearGradient id="XMLID_20_" gradientUnits="userSpaceOnUse" x1="365.478" y1="579.0176" x2="397.9772" y2="613.5167">
						<stop  offset="0" style="stop-color:#FFFFFF"/>
						<stop  offset="0.9847" style="stop-color:#D2D4D5"/>
						<stop  offset="1" style="stop-color:#D1D3D4"/>
					</linearGradient>
					<circle id="XMLID_247_" fill="url(#XMLID_20_)" cx="380.955" cy="595.447" r="24.063"/>
				</g>
				
					<text id="XMLID_335_" transform="matrix(1 0 0 1 359.0347 607.1348)" fill="#008080" font-family="'BebasNeueBold'" font-size="34.1481">05</text>
			</g>
		</g>
		<g id="XMLID_382_">
			<g id="XMLID_353_">
				<path id="XMLID_285_" fill="#E8804D" d="M389.734,694.359H251.033c-3.457,0-6.701-1.701-8.631-4.569
					c-2.338-3.472-6.348-5.723-10.876-5.598c-6.569,0.182-12.036,5.57-12.304,12.137c-0.296,7.242,5.487,13.206,12.663,13.206
					c4.301,0,8.1-2.143,10.391-5.419c2.028-2.9,5.227-4.757,8.766-4.757h138.693V694.359z"/>
				<polygon id="XMLID_296_" fill="#FFFFFF" points="237.021,694.928 233.896,694.928 233.896,691.801 230.896,691.801 
					230.896,694.928 227.77,694.928 227.77,697.928 230.896,697.928 230.896,701.053 233.896,701.053 233.896,697.928 
					237.021,697.928 				"/>
			</g>
			<g id="XMLID_381_">
				<g id="XMLID_275_">
					<g id="XMLID_278_">
						<path id="XMLID_279_" fill="#E8804D" d="M439.517,671.303c7.58,7.58,11.094,17.685,10.521,27.605
							c-0.474,8.562-3.988,16.984-10.521,23.518c-6.534,6.534-14.948,10.041-23.505,10.522c-9.928,0.565-20.039-2.942-27.62-10.522
							c-14.121-14.121-14.114-37.01,0-51.123C402.514,657.182,425.396,657.182,439.517,671.303z"/>
					</g>
					<linearGradient id="XMLID_21_" gradientUnits="userSpaceOnUse" x1="440.8125" y1="723.7148" x2="415.3389" y2="698.2413">
						<stop  offset="0" style="stop-color:#FFFFFF;stop-opacity:0"/>
						<stop  offset="0.1369" style="stop-color:#FBE9E0;stop-opacity:0.1369"/>
						<stop  offset="0.4374" style="stop-color:#F3BCA1;stop-opacity:0.4374"/>
						<stop  offset="0.6918" style="stop-color:#ED9C74;stop-opacity:0.6918"/>
						<stop  offset="0.8871" style="stop-color:#E98757;stop-opacity:0.8871"/>
						<stop  offset="1" style="stop-color:#E8804D"/>
					</linearGradient>
					<path id="XMLID_277_" fill="url(#XMLID_21_)" d="M430.975,679.844l19.063,19.064c-0.474,8.562-3.988,16.984-10.521,23.518
						c-6.534,6.534-14.948,10.041-23.505,10.522l-19.07-19.071L430.975,679.844z"/>
					<linearGradient id="XMLID_22_" gradientUnits="userSpaceOnUse" x1="398.4785" y1="680.4316" x2="430.9784" y2="714.9315">
						<stop  offset="0" style="stop-color:#FFFFFF"/>
						<stop  offset="0.9847" style="stop-color:#D2D4D5"/>
						<stop  offset="1" style="stop-color:#D1D3D4"/>
					</linearGradient>
					<circle id="XMLID_276_" fill="url(#XMLID_22_)" cx="413.956" cy="696.861" r="24.063"/>
				</g>
				
					<text id="XMLID_341_" transform="matrix(1 0 0 1 393.0347 709.5352)" fill="#E8804D" font-family="'BebasNeueBold'" font-size="34.1481">06</text>
			</g>
		</g>
	</g>
</g>
<g id="DESIGNED_BY_FREEPIK">
</g>
</svg>
